<svg xmlns="http://www.w3.org/2000/svg" viewBox="0 0 512 512">
<g fill="none" stroke="currentColor" stroke-linecap="round" stroke-linejoin="round" stroke-width="32">
 <path d="M64 192v-72a40 40 0 0140-40h75.89a40 40 0 0122.19 6.72l27.84 18.56a40 40 0 0022.19 6.72H408a40 40 0 0140 40v40"/>
 <path d="M479.9 226.55L463.68 392a40 40 0 01-39.93 40H88.25a40 40 0 01-39.93-40L32.1 226.55A32 32 0 0164 192h384.1a32 32 0 0131.8 34.55z"/>
</g>
<g transform="scale(0.66) translate(310, 270)">
  <path d="M256 48C141.31 48 48 141.31 48 256s93.31 208 208 208 208-93.31 208-208S370.69 48 256 48zm80 224h-64v64a16 16 0 01-32 0v-64h-64a16 16 0 010-32h64v-64a16 16 0 0132 0v64h64a16 16 0 010 32z"/>
</g>
</svg>
