<svg xmlns="http://www.w3.org/2000/svg" viewBox="0 0 512 512">
<g fill="none" stroke="currentColor" stroke-linecap="round" stroke-linejoin="round" stroke-width="32">
 <path d="M64 192v-72a40 40 0 0140-40h75.89a40 40 0 0122.19 6.72l27.84 18.56a40 40 0 0022.19 6.72H408a40 40 0 0140 40v40"/>
 <path d="M479.9 226.55L463.68 392a40 40 0 01-39.93 40H88.25a40 40 0 01-39.93-40L32.1 226.55A32 32 0 0164 192h384.1a32 32 0 0131.8 34.55z"/>
</g>
<g transform="scale(0.66) translate(310, 270)">
  <path d="M464 256c0-114.87-93.13-208-208-208S48 141.13 48 256s93.13 208 208 208 208-93.13 208-208zm-212.65 91.36a16 16 0 01-.09-22.63L303.58 272H170a16 16 0 010-32h133.58l-52.32-52.73A16 16 0 11274 164.73l79.39 80a16 16 0 010 22.54l-79.39 80a16 16 0 01-22.65.09z"/>
</g>
</svg>
