<?xml version="1.0" encoding="utf-8"?>
<svg version="1.1" xmlns="http://www.w3.org/2000/svg" width="800px" height="800px" viewBox="0 0 32 32" xml:space="preserve">
<path fill="currentColor" d="M12,24c0,1.103-0.897,2-2,2s-2-0.897-2-2c0-1.103,0.897-2,2-2S12,22.897,12,24z M10,6
	C8.897,6,8,6.897,8,8c0,1.103,0.897,2,2,2s2-0.897,2-2C12,6.897,11.103,6,10,6z M12,16c0,1.103-0.897,2-2,2s-2-0.897-2-2
	c0-1.103,0.897-2,2-2S12,14.897,12,16z M11,16c0-0.552-0.448-1-1-1s-1,0.448-1,1c0,0.552,0.448,1,1,1S11,16.552,11,16z M28,5v22
	c0,1.657-1.343,3-3,3H7c-1.657,0-3-1.343-3-3V5c0-1.657,1.343-3,3-3h18C26.657,2,28,3.343,28,5z M13,24c0-1.657-1.343-3-3-3
	s-3,1.343-3,3s1.343,3,3,3S13,25.657,13,24z M13,16c0-1.657-1.343-3-3-3s-3,1.343-3,3s1.343,3,3,3S13,17.657,13,16z M13,8
	c0-1.657-1.343-3-3-3S7,6.343,7,8s1.343,3,3,3S13,9.657,13,8z M23,24.5c0-0.276-0.224-0.5-0.5-0.5h-7c-0.276,0-0.5,0.224-0.5,0.5
	s0.224,0.5,0.5,0.5h7C22.776,25,23,24.776,23,24.5z M23,22.5c0-0.276-0.224-0.5-0.5-0.5h-7c-0.276,0-0.5,0.224-0.5,0.5
	s0.224,0.5,0.5,0.5h7C22.776,23,23,22.776,23,22.5z M23,16.5c0-0.276-0.224-0.5-0.5-0.5h-7c-0.276,0-0.5,0.224-0.5,0.5
	s0.224,0.5,0.5,0.5h7C22.776,17,23,16.776,23,16.5z M23,14.5c0-0.276-0.224-0.5-0.5-0.5h-7c-0.276,0-0.5,0.224-0.5,0.5
	s0.224,0.5,0.5,0.5h7C22.776,15,23,14.776,23,14.5z M23,8.5C23,8.224,22.776,8,22.5,8h-7C15.224,8,15,8.224,15,8.5S15.224,9,15.5,9
	h7C22.776,9,23,8.776,23,8.5z M23,6.5C23,6.224,22.776,6,22.5,6h-7C15.224,6,15,6.224,15,6.5S15.224,7,15.5,7h7
	C22.776,7,23,6.776,23,6.5z"/>
</svg>
