<?xml version="1.0" encoding="UTF-8"?>
<svg id="artwork" xmlns="http://www.w3.org/2000/svg" version="1.1" viewBox="0 0 135 40">
  <!-- Generator: Adobe Illustrator 29.5.1, SVG Export Plug-In . SVG Version: 2.1.0 Build 141)  -->
  <defs>
    <style>
      .st0 {
        fill: #4285f4;
      }

      .st1 {
        fill: #a6a6a6;
      }

      .st2 {
        fill: #34a853;
      }

      .st3 {
        fill: #fbbc04;
      }

      .st4, .st5 {
        fill: #fff;
      }

      .st6 {
        fill: #ea4335;
      }

      .st5 {
        font-family: GoogleSans-Medium, 'Google Sans';
        font-size: 8.7px;
        font-weight: 500;
      }
    </style>
  </defs>
  <g>
    <rect width="135" height="40" rx="5" ry="5"/>
    <path class="st1" d="M130,.8c2.316,0,4.2,1.884,4.2,4.2v30c0,2.316-1.884,4.2-4.2,4.2H5c-2.316,0-4.2-1.884-4.2-4.2V5C.8,2.684,2.684.8,5,.8h125M130,0H5C2.25,0,0,2.25,0,5v30c0,2.75,2.25,5,5,5h125c2.75,0,5-2.25,5-5V5C135,2.25,132.75,0,130,0h0Z"/>
    <path class="st4" d="M68.136,21.752c-2.352,0-4.269,1.788-4.269,4.253,0,2.449,1.917,4.253,4.269,4.253s4.269-1.804,4.269-4.253c0-2.465-1.917-4.253-4.269-4.253ZM68.136,28.583c-1.289,0-2.4-1.063-2.4-2.578,0-1.531,1.112-2.578,2.4-2.578s2.4,1.047,2.4,2.578c0,1.514-1.112,2.578-2.4,2.578ZM58.822,21.752c-2.352,0-4.269,1.788-4.269,4.253,0,2.449,1.917,4.253,4.269,4.253s4.269-1.804,4.269-4.253c0-2.465-1.917-4.253-4.269-4.253ZM58.822,28.583c-1.289,0-2.4-1.063-2.4-2.578,0-1.531,1.112-2.578,2.4-2.578s2.4,1.047,2.4,2.578c0,1.514-1.112,2.578-2.4,2.578ZM47.744,23.057v1.804h4.318c-.129,1.015-.467,1.756-.983,2.272-.628.628-1.611,1.321-3.335,1.321-2.658,0-4.736-2.143-4.736-4.801s2.078-4.801,4.736-4.801c1.434,0,2.481.564,3.254,1.289l1.273-1.273c-1.079-1.031-2.513-1.82-4.527-1.82-3.641,0-6.702,2.964-6.702,6.605s3.061,6.605,6.702,6.605c1.965,0,3.448-.644,4.608-1.853,1.192-1.192,1.563-2.868,1.563-4.221,0-.419-.032-.805-.097-1.128h-6.074ZM93.052,24.458c-.354-.95-1.434-2.707-3.641-2.707-2.191,0-4.011,1.724-4.011,4.253,0,2.384,1.804,4.253,4.221,4.253,1.949,0,3.077-1.192,3.544-1.885l-1.45-.967c-.483.709-1.144,1.176-2.094,1.176s-1.627-.435-2.062-1.289l5.687-2.352-.193-.483ZM87.252,25.876c-.048-1.643,1.273-2.481,2.223-2.481.741,0,1.369.37,1.579.902l-3.802,1.579ZM82.628,30h1.869v-12.502h-1.869v12.502ZM79.567,22.702h-.064c-.419-.499-1.224-.951-2.239-.951-2.127,0-4.076,1.869-4.076,4.269,0,2.384,1.949,4.237,4.076,4.237,1.015,0,1.82-.451,2.239-.967h.064v.612c0,1.627-.87,2.497-2.272,2.497-1.144,0-1.853-.822-2.143-1.514l-1.627.677c.467,1.128,1.708,2.513,3.77,2.513,2.191,0,4.044-1.289,4.044-4.43v-7.636h-1.772v.693ZM77.425,28.583c-1.289,0-2.368-1.079-2.368-2.562,0-1.498,1.079-2.594,2.368-2.594,1.273,0,2.272,1.096,2.272,2.594,0,1.482-.999,2.562-2.272,2.562ZM101.806,17.499h-4.471v12.501h1.866v-4.736h2.605c2.068,0,4.101-1.497,4.101-3.883s-2.033-3.882-4.101-3.882ZM101.854,23.524h-2.654v-4.285h2.654c1.395,0,2.187,1.155,2.187,2.143,0,.969-.792,2.143-2.187,2.143ZM113.386,21.729c-1.351,0-2.75.595-3.329,1.914l1.657.692c.354-.692,1.013-.917,1.705-.917.965,0,1.946.579,1.962,1.608v.129c-.338-.193-1.061-.483-1.946-.483-1.785,0-3.603.981-3.603,2.815,0,1.673,1.463,2.75,3.104,2.75,1.254,0,1.946-.563,2.38-1.222h.064v.965h1.801v-4.793c0-2.22-1.657-3.458-3.796-3.458ZM113.16,28.58c-.611,0-1.464-.305-1.464-1.061,0-.965,1.061-1.335,1.978-1.335.82,0,1.206.177,1.705.418-.145,1.158-1.142,1.978-2.219,1.978ZM123.743,22.002l-2.139,5.42h-.064l-2.219-5.42h-2.01l3.329,7.575-1.898,4.214h1.946l5.131-11.789h-2.075ZM106.936,30h1.866v-12.501h-1.866v12.501Z"/>
    <g>
      <path class="st6" d="M20.717,19.424l-10.647,11.3s.001.005.002.007c.327,1.227,1.447,2.13,2.777,2.13.531,0,1.031-.144,1.459-.396l.034-.02,11.984-6.915-5.609-6.106Z"/>
      <path class="st3" d="M31.488,17.5l-.01-.007-5.174-3-5.829,5.187,5.849,5.848,5.146-2.969c.902-.487,1.515-1.438,1.515-2.535,0-1.09-.604-2.036-1.498-2.525Z"/>
      <path class="st0" d="M10.07,9.277c-.064.236-.098.484-.098.74v19.968c0,.256.033.504.098.739l11.013-11.011-11.013-10.436Z"/>
      <path class="st2" d="M20.796,20.001l5.51-5.509-11.97-6.94c-.435-.261-.943-.411-1.486-.411-1.33,0-2.452.905-2.779,2.134,0,0,0,.002,0,.003l10.726,10.724Z"/>
    </g>
  </g>
  <text class="st5" transform="translate(41.08 13.134)"><tspan x="0" y="0">DISPONIBLE SUR</tspan></text>
</svg>