<?xml version="1.0" encoding="iso-8859-1"?>
<svg fill="currentColor" height="800px" width="800px" version="1.1" xmlns="http://www.w3.org/2000/svg" xmlns:xlink="http://www.w3.org/1999/xlink" 
	 viewBox="0 0 512 512" xml:space="preserve">
<g>
	<path d="M339.569,0H205.776c-64.445,0-116.87,52.429-116.87,116.87v19.772c-19.391,6.914-33.391,25.273-33.391,47.01v133.565
		c0,21.737,14,40.096,33.391,47.01v30.903c0,64.441,52.424,116.87,116.87,116.87h78.315c55.109,0,103.228-39.152,114.435-93.223
		l55.479-278.152C469.07,68.006,413.591,0,339.569,0z M172.385,333.913h-66.783c-9.206,0-16.696-7.49-16.696-16.696V183.652
		c0-9.206,7.49-16.696,16.696-16.696h66.783c9.206,0,16.696,7.49,16.696,16.696v133.565
		C189.08,326.423,181.591,333.913,172.385,333.913z M355.895,120.397l-55.467,278.131c-1.598,7.707-8.478,13.299-16.347,13.299
		h-78.305c-9.206,0-16.696-7.49-16.696-16.696v-30.903c19.391-6.914,33.391-25.273,33.391-47.01V183.652
		c0-21.737-14-40.096-33.391-47.01V116.87c0-9.206,7.49-16.696,16.696-16.696h133.793
		C350.012,100.174,358.101,109.677,355.895,120.397z"/>
</g>
</svg>